<?xml version="1.0" encoding="utf-8"?>
<!-- Generator: Adobe Illustrator 24.2.0, SVG Export Plug-In . SVG Version: 6.00 Build 0)  -->
<svg version="1.1" id="Moon" xmlns="http://www.w3.org/2000/svg" xmlns:xlink="http://www.w3.org/1999/xlink" x="0px" y="0px"
	 viewBox="0 0 80.1 80.3" style="enable-background:new 0 0 80.1 80.3;" xml:space="preserve">
<path d="M55.8,7.8C73.7,16.5,81.2,38,72.6,55.9S42.4,81.3,24.5,72.7c-7.3-3.5-13.3-9.5-16.8-16.8c14.2,12.3,35.7,10.8,48.1-3.4
	C66.9,39.7,66.9,20.6,55.8,7.8 M40.1,0.3c-1.8,0-3.6,0.1-5.3,0.4c16.4,2.6,27.5,17.9,25,34.3c-2.6,16.4-17.9,27.5-34.3,25
	c-12.8-2-22.9-12.1-25-25c-0.2,1.8-0.4,3.5-0.4,5.3c0,22.1,17.9,40,40,40s40-17.9,40-40S62.2,0.3,40.1,0.3z"/>
<polygon points="7.1,9.9 3.6,12.3 4.9,8.2 1.5,5.7 5.7,5.6 7.1,1.5 8.5,5.6 12.8,5.7 9.4,8.2 10.6,12.3 "/>
<path d="M7.1,3l0.8,2.4l0.2,0.7h0.7h2.5l-2,1.5L8.8,8L9,8.7L9.7,11l-2-1.4L7.1,9.3L6.6,9.7l-2,1.4l0.7-2.4L5.5,8L4.9,7.6l-2-1.5h2.5
	h0.7l0.2-0.7L7.1,3 M7.1,0L5.4,5.1L0,5.2l4.3,3.2l-1.6,5.1l4.4-3.1l4.4,3.1L10,8.4l4.3-3.3L8.9,5.1L7.1,0L7.1,0z"/>
</svg>
