<svg id="Sun" xmlns="http://www.w3.org/2000/svg" viewBox="0 0 100 100"><defs><style>.cls-1{fill:#fff;}.cls-2,.cls-3{fill:none;stroke:#fff;stroke-miterlimit:10;}.cls-2{stroke-width:3px;}.cls-3{stroke-width:2px;}</style></defs><path class="cls-1" d="M50,17A33,33,0,1,1,17,50,33,33,0,0,1,50,17m0-5A38,38,0,1,0,88,50,38,38,0,0,0,50,12Z"/><line class="cls-2" x1="50.5" y1="10" x2="50.5"/><line class="cls-2" x1="10" y1="50.5" y2="50.5"/><line class="cls-2" x1="90" y1="49.5" x2="100" y2="49.5"/><line class="cls-2" x1="50.5" y1="90" x2="50.5" y2="100"/><line class="cls-3" x1="19.31" y1="18.15" x2="12.24" y2="11.08"/><line class="cls-3" x1="82.02" y1="81.3" x2="89.09" y2="88.37"/><line class="cls-3" x1="80.46" y1="18.26" x2="87.54" y2="11.19"/><line class="cls-3" x1="17.98" y1="80.69" x2="10.91" y2="87.76"/></svg>